<svg fill="none" viewBox="0 0 66 66" xmlns="http://www.w3.org/2000/svg"><path d="m17.1 10a28 28 0 0 0 -7.1 7l5.7-1.4 1.3-5.6zm-12 25.2c.3 3.4 1.2 6.7 2.6 9.9l1.6-5.7-4.3-4.2zm39.9-27.5a28 28 0 0 0 -9.8-2.6l4.2 4.2zm-24.2 27.3 2.7-9.9-7.3-7.3-8 2.1c-2 3.8-3 8-3.2 12.1l5.8 5.8 10-2.7zm4.3-11.5 10-2.7 2.7-10-5.8-5.8a28 28 0 0 0 -12.1 3.3l-2.1 7.9zm10.6-.5-10 2.7-2.7 10 7.4 7.3 9.7-2.6 2.7-10.2zm1.6-1.6 7.1 7.2 10.2-2.8 2.1-7.7a28.2 28.2 0 0 0 -8.8-8.8l-8 2.1zm-8.6 23.2-7.3-7.3-10 2.7-2.1 7.9a28.2 28.2 0 0 0 8.8 8.8l8-2.1zm-7.7 13.7c3 1.4 6.4 2.3 9.8 2.6l-4.2-4.2-5.7 1.6zm39.9-27.5a28 28 0 0 0 -2.6-9.9l-1.6 5.7zm-15.7.2-2.7 9.9 7.2 7.2 8.2-2.2c1.9-3.7 3-7.8 3-11.9l-5.7-5.8-10 2.7zm-4.3 11.5-10 2.7-2.7 10 5.8 5.8c4.2-.2 8.3-1.3 12-3.2l2.2-8zm15.3 6.2-5.8 1.5-1.5 5.9a28.4 28.4 0 0 0 7.3-7.4z" fill="#64c864"/></svg>