<svg height="300" viewBox="0 0 64 64" width="300" xmlns="http://www.w3.org/2000/svg"><path d="m55.1 14.47a29 29 0 0 0 -27.93-11.06c-.8.13-1.59.3-2.38.5s-1.56.43-2.33.7a29 29 0 0 0 -19.46 27.39v.65a28.59 28.59 0 0 0 5.2 15.9c.46.67 1 1.32 1.47 1.94s1.07 1.23 1.63 1.81a29 29 0 0 0 12.3 7.45 28.78 28.78 0 0 0 16.78 0 27.71 27.71 0 0 0 4.51-1.75 28.47 28.47 0 0 0 2.79-1.61 29.06 29.06 0 0 0 8.13-7.81 28.69 28.69 0 0 0 5.19-15.94c0-.22 0-.42 0-.64a29.27 29.27 0 0 0 -.85-7 28.5 28.5 0 0 0 -5.05-10.53zm-4.53 35.72-.07.06c-.43.44-.88.86-1.35 1.27l-.36.31a26.59 26.59 0 0 1 -3.13 2.28l-.41.24c-.54.33-1.1.64-1.67.92-.44.22-.89.41-1.34.6a30.13 30.13 0 0 1 2.77-6 31 31 0 0 1 6.57-.8c-.34.39-.66.76-1.01 1.12zm3.23-4c-.62 0-1.23 0-1.82 0a33.81 33.81 0 0 0 -7.3.81l-3-4.06a33.92 33.92 0 0 0 3-6.7 34.79 34.79 0 0 0 1.49-7.2l4.83-1.64a35.16 35.16 0 0 0 5.45 5c.5.35 1 .68 1.48 1a25.78 25.78 0 0 1 -4.13 12.74zm-33.36 9.09h-.05c-.56-.28-1.1-.59-1.64-.91-.14-.08-.28-.16-.41-.25a26.83 26.83 0 0 1 -3.13-2.27l-.36-.31c-.47-.41-.93-.84-1.36-1.28l-.06-.05c-.34-.35-.66-.73-1-1.1a31.62 31.62 0 0 1 6.56.79 31 31 0 0 1 2.78 6c-.44-.21-.89-.4-1.33-.62zm-1.11-8.4a34 34 0 0 0 -9.12-.74 25.69 25.69 0 0 1 -4.15-12.8c.51-.33 1-.66 1.49-1a34 34 0 0 0 5.43-5l4.77 1.55a33.88 33.88 0 0 0 1.49 7.2 34.35 34.35 0 0 0 3 6.7zm-12.93-19.41c.09-.5.19-1 .3-1.48 0-.14.06-.28.1-.42.15-.6.32-1.19.52-1.78l.12-.36c.17-.48.35-.95.55-1.42l.19-.46c.25-.57.51-1.12.8-1.67l.1-.17c.19-.35.4-.7.61-1.05a30.54 30.54 0 0 1 1.31 6.5 31.5 31.5 0 0 1 -4.86 4.52c0-.59.12-1.17.21-1.75-.01-.15.02-.3.05-.46zm18.6 14.15a30.71 30.71 0 0 1 -2.91-6.41 31 31 0 0 1 -1.41-6.88 31.76 31.76 0 0 1 5.19-4.76 31.28 31.28 0 0 1 6.13-3.46 31 31 0 0 1 11.31 8.22 31.28 31.28 0 0 1 -1.41 6.88 30.54 30.54 0 0 1 -2.9 6.4 31 31 0 0 1 -14 .01zm2.64-35.26h.11c.59-.1 1.19-.17 1.78-.23h.57c.58-.13 1.17-.13 1.76-.13h.28c.59 0 1.18 0 1.76.08h.57c.6.06 1.19.13 1.79.23h.1c.48.08 1 .2 1.42.31a31.39 31.39 0 0 1 -5.78 3.27 32.05 32.05 0 0 1 -5.78-3.22c.47-.11.94-.23 1.42-.31zm27.28 13.36.1.17c.29.54.55 1.1.8 1.66.06.16.13.31.19.47.2.47.38.94.54 1.42.05.12.09.24.13.36.2.58.37 1.17.52 1.77 0 .14.07.29.1.43.11.49.21 1 .3 1.47 0 .16.06.31.08.47.09.58.16 1.15.21 1.74a31 31 0 0 1 -4.89-4.51 30.54 30.54 0 0 1 1.28-6.5c.24.33.45.69.64 1.05zm-2.73-4.07c-.22.58-.43 1.15-.61 1.69a33.88 33.88 0 0 0 -1.49 7.2l-4.78 1.55a34.48 34.48 0 0 0 -5.43-4.95 34.38 34.38 0 0 0 -6.38-3.64v-5a33.82 33.82 0 0 0 6.38-3.64c.49-.35.95-.74 1.42-1.12a25.75 25.75 0 0 1 10.89 7.91zm-29.5-7.91c.49.4 1 .78 1.43 1.11a34.38 34.38 0 0 0 6.38 3.64v5a33.78 33.78 0 0 0 -6.38 3.63 34.64 34.64 0 0 0 -5.44 4.95l-4.77-1.55a33.88 33.88 0 0 0 -1.49-7.2c-.19-.58-.4-1.15-.61-1.7a25.91 25.91 0 0 1 10.88-7.88zm2.58 49.35c-.14-.55-.3-1.11-.5-1.73a34.08 34.08 0 0 0 -3-6.7l2.94-4a34.69 34.69 0 0 0 7.31.81 33.89 33.89 0 0 0 7.3-.82l3 4.06a33.79 33.79 0 0 0 -3 6.69c-.19.59-.35 1.16-.5 1.74a26 26 0 0 1 -13.55-.05z"/></svg>