<svg xmlns="http://www.w3.org/2000/svg" fill="none" viewBox="0 0 66 66">
  <path fill="#FA324B" d="M17.1 10A28 28 0 0010 17l5.7-1.4L17 10zM5.1 35.2c.3 3.4 1.2 6.7 2.6 9.9l1.6-5.7L5 35.2zM45 7.7a28 28 0 00-9.8-2.6l4.2 4.2L45 7.7zM20.8 35l2.7-9.9-7.3-7.3-8 2.1c-2 3.8-3 8-3.2 12.1l5.8 5.8 10-2.7zM25.1 23.5l10-2.7 2.7-10L32 5a28 28 0 00-12.1 3.3l-2.1 7.9 7.3 7.3zM35.7 23l-10 2.7-2.7 10 7.4 7.3 9.7-2.6 2.7-10.2-7.1-7.2zM37.3 21.4l7.1 7.2 10.2-2.8 2.1-7.7a28.2 28.2 0 00-8.8-8.8l-8 2.1-2.6 10zM28.7 44.6l-7.3-7.3-10 2.7-2.1 7.9a28.2 28.2 0 008.8 8.8l8-2.1 2.6-10zM21 58.3c3 1.4 6.4 2.3 9.8 2.6l-4.2-4.2-5.7 1.6zM60.9 30.8a28 28 0 00-2.6-9.9l-1.6 5.7 4.2 4.2zM45.2 31l-2.7 9.9 7.2 7.2 8.2-2.2c1.9-3.7 3-7.8 3-11.9l-5.7-5.8-10 2.7zM40.9 42.5l-10 2.7-2.7 10L34 61c4.2-.2 8.3-1.3 12-3.2l2.2-8-7.3-7.3zM56.2 48.7l-5.8 1.5-1.5 5.9a28.4 28.4 0 007.3-7.4z"/>
</svg>
