<svg width="142" height="143" viewBox="0 0 142 143" fill="none" xmlns="http://www.w3.org/2000/svg">
<path d="M36.7928 21.0911C33.7951 23.1569 30.9131 25.5051 28.2472 28.1711C25.5472 30.871 23.1821 33.7699 21.1009 36.783L33.4618 33.5184L36.7928 21.0911Z" fill="#E5E5E5" fill-opacity="0.5"/>
<path d="M10.6052 76.2681C11.2038 83.6304 13.0876 90.877 16.3182 97.6746L19.6337 85.2966L10.6052 76.2681Z" fill="#E5E5E5" fill-opacity="0.5"/>
<path d="M97.7506 16.2421C90.9191 13.0114 83.6401 11.0953 76.2423 10.5291L85.3063 19.5931L97.7506 16.2421Z" fill="#E5E5E5" fill-opacity="0.5"/>
<path d="M44.9064 75.9179L50.7213 54.2121L34.6931 38.1839L17.4352 42.8154C13.086 51.0617 10.7703 60.1072 10.437 69.2036L22.9986 81.7651L44.9064 75.9179Z" fill="#E5E5E5" fill-opacity="0.5"/>
<path d="M54.2034 50.6621L75.994 44.8303L81.8243 23.0042L69.1809 10.3609C60.1015 10.7111 51.0715 13.0423 42.8421 17.4084L38.2106 34.6663L54.2049 50.6606L54.2034 50.6621Z" fill="#E5E5E5" fill-opacity="0.5"/>
<path d="M77.2421 49.6115L55.4854 55.4433L49.6875 77.166L65.6664 93.1449L86.9232 87.4458L92.8862 65.2556L77.2421 49.6115Z" fill="#E5E5E5" fill-opacity="0.5"/>
<path d="M80.7566 46.097L96.4007 61.741L118.642 55.7611L123.156 38.8828C120.759 35.0844 117.943 31.4696 114.644 28.1711C111.346 24.8725 107.731 22.0569 103.933 19.6594L86.607 24.2909L80.7566 46.097Z" fill="#E5E5E5" fill-opacity="0.5"/>
<path d="M62.1164 96.6239L46.2085 80.716L24.3346 86.5633L19.737 103.855C22.133 107.655 24.9486 111.27 28.2472 114.568C31.5457 117.867 35.1605 120.682 38.9589 123.08L56.2507 118.482L62.1164 96.6239Z" fill="#E5E5E5" fill-opacity="0.5"/>
<path d="M45.1409 126.497C51.9215 129.711 59.1851 131.612 66.5474 132.21L57.5173 123.18L45.1409 126.497Z" fill="#E5E5E5" fill-opacity="0.5"/>
<path d="M132.287 66.5731C131.72 59.1754 129.803 51.8948 126.573 45.0648L123.223 57.5091L132.287 66.5731Z" fill="#E5E5E5" fill-opacity="0.5"/>
<path d="M97.9852 66.8215L92.1534 88.6121L107.831 104.29L125.672 99.5075C129.855 91.3938 132.12 82.5319 132.453 73.633L119.81 60.9897L97.9852 66.8215Z" fill="#E5E5E5" fill-opacity="0.5"/>
<path d="M88.6049 92.0927L66.8992 97.9075L61.0519 119.815L73.6135 132.377C82.7099 132.044 91.7553 129.728 100.002 125.379L104.635 108.119L88.6065 92.0912L88.6049 92.0927Z" fill="#E5E5E5" fill-opacity="0.5"/>
<path d="M122.09 105.521L109.479 108.903L106.048 121.699C109.063 119.616 111.963 117.25 114.644 114.568C117.46 111.753 119.926 108.72 122.09 105.521Z" fill="#E5E5E5" fill-opacity="0.5"/>
<path d="M118.205 140C126.54 140 133.145 133.237 133.145 125.059C133.145 116.724 126.383 110.118 118.205 110.118C109.869 110.118 103.264 116.881 103.264 125.059C103.264 133.237 109.869 140 118.205 140ZM96.3437 35.886C104.207 36.8296 111.442 31.1678 112.385 23.3042C113.329 15.2833 107.667 8.0488 99.8037 7.10516C91.6256 6.16153 84.5483 11.6661 83.6047 19.6869C82.6611 27.7078 88.3229 34.785 96.3437 35.886ZM29.1886 39.1886C32.6486 34.785 36.1086 30.3814 39.5685 25.8205C40.8267 24.0905 42.3994 23.4614 44.6012 23.776C54.1948 25.0342 63.9457 25.9778 73.5393 27.236C75.2693 27.3933 77.1566 28.3369 78.572 29.4378C83.6047 33.3696 88.3229 37.6159 93.1983 41.705C95.8719 43.9068 96.9728 46.7377 96.501 50.1977C95.8719 54.9158 95.4001 59.634 94.9283 64.3522C94.9283 64.9813 94.771 65.4531 94.771 66.2394C95.4001 66.3967 96.0292 66.3967 96.501 66.3967C101.848 67.0258 107.038 67.6549 112.385 68.284C116.16 68.7558 118.519 71.4294 118.205 75.0467C117.733 78.6639 114.745 81.023 110.97 80.5512C102.477 79.6076 93.8274 78.5067 85.3347 77.563C82.6611 77.2485 81.4029 75.6758 81.7174 73.0022C82.1893 69.0704 82.6611 64.9813 83.1329 61.0495C83.1329 60.8922 83.1329 60.8922 83.1329 60.2631C78.4147 66.0822 73.6966 71.5867 68.9784 77.2485C69.4502 77.7203 69.922 78.0349 70.2366 78.3494C74.9547 82.1239 79.6729 85.8985 84.3911 89.5157C86.5929 91.2457 87.5365 93.4475 87.222 96.2784C85.8065 108.546 84.3911 120.813 82.9756 133.08C82.5038 137.641 79.2011 140.315 74.4829 139.843C69.922 139.371 67.4057 137.169 66.9339 133.395C66.7766 132.608 66.9339 131.979 67.0911 131.193C68.3493 120.813 69.4502 110.433 70.7084 100.053C70.8657 99.2666 70.8657 98.6375 70.0793 98.0084C65.5184 94.7057 60.9575 91.2457 56.3966 87.7857L50.8921 82.2812C50.1058 81.4948 41.2985 72.2158 48.8476 62.7795C54.6666 55.3877 60.4857 47.9959 66.4621 40.6041C66.7766 40.1323 67.2484 39.6605 67.7202 39.0314C67.2484 38.8741 66.7766 38.7168 66.4621 38.7168C60.643 38.0877 54.6666 37.3014 48.8476 36.6723C47.7467 36.515 47.2749 36.8296 46.6458 37.6159C44.1294 40.7614 41.7703 43.9068 39.254 47.0522C36.7376 50.1977 33.1204 50.6695 30.1322 48.4677C26.9868 46.2659 26.6722 42.3341 29.1886 39.1886ZM1.03689 86.9994C1.35143 83.5394 2.92416 80.7085 6.22687 79.1358C8.58595 78.0349 10.7878 78.5067 12.8323 79.7648C18.4941 82.9103 24.1559 86.0557 29.8177 89.2012C30.2895 89.5157 30.7613 89.8303 31.5477 90.1448C31.8622 89.5157 32.1767 89.0439 32.334 88.5721C35.4795 82.9103 35.1649 83.5393 38.3104 77.8776C38.4676 77.7203 39.5685 75.6758 40.5122 74.103C41.4558 79.1357 44.2867 83.3821 46.8031 86.0557L50.263 89.5157C46.9603 95.4921 43.5003 101.626 40.3549 107.287C38.4676 110.747 36.2658 111.376 32.8058 109.489C23.5268 104.299 14.2477 99.1093 4.96869 94.0766C2.45234 92.3466 0.722344 90.1448 1.03689 86.9994Z" fill="#64C864"/>
</svg>
