<svg height='300px' width='300px'  fill="#000000" xmlns="http://www.w3.org/2000/svg" xmlns:xlink="http://www.w3.org/1999/xlink" version="1.1" x="0px" y="0px" viewBox="0 0 1024 1024" style="enable-background:new 0 0 1024 1024;" xml:space="preserve"><g><g><g><path d="M805.9,415.6c0,15.6,0,31.2,0,46.8c0,37.5,0,75,0,112.5c0,45.4,0,90.7,0,136.1c0,39.2,0,78.4,0,117.7     c0,19-0.5,38.2,0,57.2c0,0.3,0,0.5,0,0.8c10-10,20-20,30-30c-21.5,0-43,0-64.6,0c-51.7,0-103.3,0-155,0c-62.1,0-124.3,0-186.4,0     c-54,0-108,0-162,0c-26.2,0-52.4-0.6-78.6,0c-0.4,0-0.7,0-1.1,0c10,10,20,20,30,30c0-15.6,0-31.2,0-46.8c0-37.5,0-75,0-112.5     c0-45.4,0-90.7,0-136.1c0-39.2,0-78.4,0-117.7c0-19,0.5-38.2,0-57.2c0-0.3,0-0.5,0-0.8c-2.9,7.1-5.9,14.1-8.8,21.2     c15.1-13,30.3-26,45.4-39c19.1-16.4,38.2-32.8,57.2-49.2c30.2-26,60.5-52,90.7-78c28.6-24.6,57.3-49.2,85.9-73.8     c14.6-12.6,29.7-24.9,44-37.8c0.2-0.2,0.4-0.4,0.6-0.5c-14.1,0-28.3,0-42.4,0c12,10.3,24.1,20.7,36.1,31     c27.6,23.7,55.2,47.4,82.7,71.1c30.7,26.4,61.5,52.8,92.2,79.2c21.1,18.2,42.2,36.3,63.4,54.5c15.2,13,30.3,26,45.5,39.1     c1.3,1.1,2.6,2.3,3.9,3.4c6.1,5.3,12.9,8.8,21.2,8.8c7.4,0,16.1-3.3,21.2-8.8c10.3-11.2,12.7-31.5,0-42.4     c-15.1-13-30.2-26-45.4-39c-19.1-16.4-38.2-32.8-57.2-49.2c-30.2-26-60.5-52-90.7-78c-28.6-24.6-57.3-49.2-85.9-73.8     c-14.7-12.6-29.2-25.3-44-37.8c-0.2-0.2-0.4-0.4-0.6-0.5c-13-11.2-29.3-11.3-42.4,0c-13.2,11.3-26.4,22.7-39.6,34     c-29.8,25.6-59.6,51.2-89.4,76.8c-31.7,27.2-63.4,54.5-95.1,81.7c-18.9,16.2-37.8,32.5-56.7,48.7c-5.7,4.9-11.4,9.8-17.1,14.7     c-7.4,6.4-14.9,12.8-22.3,19.1c-7.5,6.5-12.3,14.5-12.5,25c-0.4,17.3,0,34.7,0,52c0,36.5,0,73,0,109.6c0,43.4,0,86.9,0,130.3     c0,38.1,0,76.2,0,114.3c0,20.5,0,41,0,61.5c0,0.9,0,1.9,0,2.8c0,16.2,13.7,30,30,30c21.5,0,43,0,64.6,0c51.7,0,103.3,0,155,0     c62.1,0,124.3,0,186.4,0c54,0,108,0,162,0c26.2,0,52.4,0.5,78.6,0c0.4,0,0.7,0,1.1,0c16.2,0,30-13.7,30-30c0-15.6,0-31.2,0-46.8     c0-37.5,0-75,0-112.5c0-45.4,0-90.7,0-136.1c0-39.2,0-78.4,0-117.7c0-19.1,0.4-38.1,0-57.2c0-0.3,0-0.5,0-0.8     c0-15.7-13.8-30.7-30-30C819.6,386.3,805.9,398.8,805.9,415.6z"></path></g></g><g><g><path d="M110.9,521.4c14-12.1,28.1-24.1,42.1-36.2c33.6-28.9,67.2-57.7,100.8-86.6c40.7-35,81.5-70,122.2-105     c35.1-30.2,70.2-60.3,105.3-90.5c17-14.6,34.5-28.8,51.1-43.9c0.2-0.2,0.5-0.4,0.7-0.6c11.9-10.3,11.3-32,0-42.4     c-12.7-11.7-29.7-10.9-42.4,0c-14,12.1-28.1,24.1-42.1,36.2c-33.6,28.9-67.2,57.7-100.8,86.6c-40.7,35-81.5,70-122.2,105     c-35.1,30.2-70.2,60.3-105.3,90.5c-17,14.6-34.5,28.8-51.1,43.9c-0.2,0.2-0.5,0.4-0.7,0.6c-11.9,10.3-11.3,32,0,42.4     C81.2,533.1,98.1,532.4,110.9,521.4L110.9,521.4z"></path></g></g><g><g><path d="M490.8,158.5c14,12.1,28.1,24.1,42.1,36.2c33.6,28.9,67.2,57.7,100.8,86.6c40.7,35,81.5,70,122.2,105     c35.1,30.2,70.2,60.3,105.3,90.5c17,14.6,34,29.4,51.1,43.9c0.2,0.2,0.5,0.4,0.7,0.6c6.1,5.3,12.9,8.8,21.2,8.8     c7.4,0,16.1-3.3,21.2-8.8c10.3-11.2,12.7-31.5,0-42.4c-14-12.1-28.1-24.1-42.1-36.2c-33.6-28.9-67.2-57.7-100.8-86.6     c-40.7-35-81.5-70-122.2-105c-35.1-30.2-70.2-60.3-105.3-90.5c-17-14.6-34-29.4-51.1-43.9c-0.2-0.2-0.5-0.4-0.7-0.6     c-6.1-5.3-12.9-8.8-21.2-8.8c-7.4,0-16.1,3.3-21.2,8.8C480.5,127.3,478.1,147.6,490.8,158.5L490.8,158.5z"></path></g></g><g><g><path d="M599.9,541.2c-33.4,0-66.9,0-100.3,0c-20.2,0-40.5,0-60.7,0c-4.6,0-9.2-0.1-13.8,0     c-23.5,0.4-41.6,18.1-42.4,41.6c-0.8,25.4,0,51,0,76.5c0,46.5,0,93,0,139.6c0,28.8-0.4,57.7,0,86.5c0,0.5,0,0.9,0,1.4     c0,16.2,13.7,30,30,30c22.3,0,44.7,0,67,0c35.7,0,71.3,0,107,0c8.3,0,16.5,0,24.8,0c16.2,0,30-13.7,30-30c0-36.8,0-73.6,0-110.5     c0-55.5,0-110.9,0-166.4c0-7.6,0-15.2,0-22.9c0-1.4,0-2.7,0-4.1C640.9,559.3,623,542.5,599.9,541.2c-15.7-0.9-30.7,14.4-30,30     c0.8,17,13.2,29,30,30c0.4,0,0.9,0.1,1.3,0.1c-2.7-0.4-5.3-0.7-8-1.1c0.9,0.1,1.7,0.3,2.5,0.6c-2.4-1-4.8-2-7.2-3     c3.4,1.4,2.5,2.8-1.8-2c-1-1.4-2.1-2.7-3.1-4.1c0.5,0.7,0.8,1.5,1.1,2.3c-1-2.4-2-4.8-3-7.2c0.3,0.8,0.5,1.7,0.6,2.5     c-0.4-2.7-0.7-5.3-1.1-8c0.6,10.4,0.1,20.9,0.1,31.3c0,24.3,0,48.6,0,72.9c0,54.6,0,109.2,0,163.7c0,12.5,0,25,0,37.4     c10-10,20-20,30-30c-22.3,0-44.7,0-67,0c-35.7,0-71.3,0-107,0c-8.3,0-16.5,0-24.8,0c10,10,20,20,30,30c0-34.6,0-69.2,0-103.8     c0-54.5,0-109,0-163.5c0-12.6-0.7-25.5,0.1-38.1c-0.4,2.7-0.7,5.3-1.1,8c0.1-0.9,0.3-1.7,0.6-2.5c-1,2.4-2,4.8-3,7.2     c1.4-3.4,2.8-2.5-2,1.8c-1.4,1-2.7,2.1-4.1,3.1c0.7-0.5,1.5-0.8,2.3-1.1c-2.4,1-4.8,2-7.2,3c0.8-0.3,1.7-0.5,2.5-0.6     c-2.7,0.4-5.3,0.7-8,1.1c20-1.2,40.3-0.1,60.3-0.1c31.6,0,63.2,0,94.8,0c7.4,0,14.7,0,22.1,0c15.7,0,30.7-13.8,30-30     C629.2,554.9,616.7,541.2,599.9,541.2z"></path></g></g></g></svg>