<svg fill="none" height="143" viewBox="0 0 142 143" width="142" xmlns="http://www.w3.org/2000/svg"><g fill="#e5e5e5" fill-opacity=".5"><path d="m36.7928 21.0911c-2.9977 2.0658-5.8797 4.414-8.5456 7.08-2.7 2.6999-5.0651 5.5988-7.1463 8.6119l12.3609-3.2646z"/><path d="m10.6052 76.2681c.5986 7.3623 2.4824 14.6089 5.713 21.4065l3.3155-12.378z"/><path d="m97.7506 16.2421c-6.8315-3.2307-14.1105-5.1468-21.5083-5.713l9.064 9.064z"/><path d="m44.9064 75.9179 5.8149-21.7058-16.0282-16.0282-17.2579 4.6315c-4.3492 8.2463-6.6649 17.2918-6.9982 26.3882l12.5616 12.5615z"/><path d="m54.2034 50.6621 21.7906-5.8318 5.8303-21.8261-12.6434-12.6433c-9.0794.3502-18.1094 2.6814-26.3388 7.0475l-4.6315 17.2579 15.9943 15.9943z"/><path d="m77.2421 49.6115-21.7567 5.8318-5.7979 21.7227 15.9789 15.9789 21.2568-5.6991 5.963-22.1902z"/><path d="m80.7566 46.097 15.6441 15.644 22.2413-5.9799 4.514-16.8783c-2.397-3.7984-5.213-7.4132-8.512-10.7117-3.298-3.2986-6.913-6.1142-10.711-8.5117l-17.326 4.6315z"/><path d="m62.1164 96.6239-15.9079-15.9079-21.8739 5.8473-4.5976 17.2917c2.396 3.8 5.2116 7.415 8.5102 10.713 3.2985 3.299 6.9133 6.114 10.7117 8.512l17.2918-4.598z"/><path d="m45.1409 126.497c6.7806 3.214 14.0442 5.115 21.4065 5.713l-9.0301-9.03z"/><path d="m132.287 66.5731c-.567-7.3977-2.484-14.6783-5.714-21.5083l-3.35 12.4443z"/><path d="m97.9852 66.8215-5.8318 21.7906 15.6776 15.6779 17.841-4.7825c4.183-8.1137 6.448-16.9756 6.781-25.8745l-12.643-12.6433z"/><path d="m88.6049 92.0927-21.7057 5.8148-5.8473 21.9075 12.5616 12.562c9.0964-.333 18.1418-2.649 26.3885-6.998l4.633-17.26-16.0285-16.0278z"/><path d="m122.09 105.521-12.611 3.382-3.431 12.796c3.015-2.083 5.915-4.449 8.596-7.131 2.816-2.815 5.282-5.848 7.446-9.047z"/></g><path d="m118.205 140c8.335 0 14.94-6.763 14.94-14.941 0-8.335-6.762-14.941-14.94-14.941-8.336 0-14.941 6.763-14.941 14.941s6.605 14.941 14.941 14.941zm-21.8613-104.114c7.8633.9436 15.0983-4.7182 16.0413-12.5818.944-8.0209-4.718-15.2554-12.5813-16.19904-8.1781-.94363-15.2554 4.56094-16.199 12.58174-.9436 8.0209 4.7182 15.0981 12.739 16.1991zm-67.1551 3.3026c3.46-4.4036 6.92-8.8072 10.3799-13.3681 1.2582-1.73 2.8309-2.3591 5.0327-2.0445 9.5936 1.2582 19.3445 2.2018 28.9381 3.46 1.73.1573 3.6173 1.1009 5.0327 2.2018 5.0327 3.9318 9.7509 8.1781 14.6263 12.2672 2.6736 2.2018 3.7745 5.0327 3.3027 8.4927-.6291 4.7181-1.1009 9.4363-1.5727 14.1545 0 .6291-.1573 1.1009-.1573 1.8872.6291.1573 1.2582.1573 1.73.1573 5.347.6291 10.537 1.2582 15.884 1.8873 3.775.4718 6.134 3.1454 5.82 6.7627-.472 3.6172-3.46 5.9763-7.235 5.5045-8.493-.9436-17.1426-2.0445-25.6353-2.9882-2.6736-.3145-3.9318-1.8872-3.6173-4.5608.4719-3.9318.9437-8.0209 1.4155-11.9527 0-.1573 0-.1573 0-.7864-4.7182 5.8191-9.4363 11.3236-14.1545 16.9854.4718.4718.9436.7864 1.2582 1.1009 4.7181 3.7745 9.4363 7.5491 14.1545 11.1663 2.2018 1.73 3.1454 3.9318 2.8309 6.7627-1.4155 12.2676-2.8309 24.5346-4.2464 36.8016-.4718 4.561-3.7745 7.235-8.4927 6.763-4.5609-.472-7.0772-2.674-7.549-6.448-.1573-.787 0-1.416.1572-2.202 1.2582-10.38 2.3591-20.76 3.6173-31.14.1573-.7864.1573-1.4155-.6291-2.0446-4.5609-3.3027-9.1218-6.7627-13.6827-10.2227l-5.5045-5.5045c-.7863-.7864-9.5936-10.0654-2.0445-19.5017 5.819-7.3918 11.6381-14.7836 17.6145-22.1754.3145-.4718.7863-.9436 1.2581-1.5727-.4718-.1573-.9436-.3146-1.2581-.3146-5.8191-.6291-11.7955-1.4154-17.6145-2.0445-1.1009-.1573-1.5727.1573-2.2018.9436-2.5164 3.1455-4.8755 6.2909-7.3918 9.4363-2.5164 3.1455-6.1336 3.6173-9.1218 1.4155-3.1454-2.2018-3.46-6.1336-.9436-9.2791zm-28.15171 47.8108c.31454-3.46 1.88727-6.2909 5.18998-7.8636 2.35908-1.1009 4.56093-.6291 6.60543.629 5.6618 3.1455 11.3236 6.2909 16.9854 9.4364.4718.3145.9436.6291 1.73.9436.3145-.6291.629-1.1009.7863-1.5727 3.1455-5.6618 2.8309-5.0328 5.9764-10.6945.1572-.1573 1.2581-2.2018 2.2018-3.7746.9436 5.0327 3.7745 9.2791 6.2909 11.9527l3.4599 3.46c-3.3027 5.9764-6.7627 12.1103-9.9081 17.7713-1.8873 3.46-4.0891 4.089-7.5491 2.202-9.279-5.19-18.5581-10.3797-27.83711-15.4124-2.51635-1.73-4.246346-3.9318-3.9318-7.0772z" fill="#64c864"/></svg>