<svg enable-background="new 0 0 1024 1024" height="300" viewBox="0 0 1024 1024" width="300" xmlns="http://www.w3.org/2000/svg"><path d="m805.9 415.6v46.8 112.5 136.1 117.7c0 19-.5 38.2 0 57.2v.8l30-30c-21.5 0-43 0-64.6 0-51.7 0-103.3 0-155 0-62.1 0-124.3 0-186.4 0-54 0-108 0-162 0-26.2 0-52.4-.6-78.6 0-.4 0-.7 0-1.1 0 10 10 20 20 30 30 0-15.6 0-31.2 0-46.8 0-37.5 0-75 0-112.5 0-45.4 0-90.7 0-136.1 0-39.2 0-78.4 0-117.7 0-19 .5-38.2 0-57.2 0-.3 0-.5 0-.8-2.9 7.1-5.9 14.1-8.8 21.2 15.1-13 30.3-26 45.4-39 19.1-16.4 38.2-32.8 57.2-49.2 30.2-26 60.5-52 90.7-78 28.6-24.6 57.3-49.2 85.9-73.8 14.6-12.6 29.7-24.9 44-37.8.2-.2.4-.4.6-.5-14.1 0-28.3 0-42.4 0 12 10.3 24.1 20.7 36.1 31 27.6 23.7 55.2 47.4 82.7 71.1 30.7 26.4 61.5 52.8 92.2 79.2 21.1 18.2 42.2 36.3 63.4 54.5 15.2 13 30.3 26 45.5 39.1 1.3 1.1 2.6 2.3 3.9 3.4 6.1 5.3 12.9 8.8 21.2 8.8 7.4 0 16.1-3.3 21.2-8.8 10.3-11.2 12.7-31.5 0-42.4-15.1-13-30.2-26-45.4-39-19.1-16.4-38.2-32.8-57.2-49.2-30.2-26-60.5-52-90.7-78-28.6-24.6-57.3-49.2-85.9-73.8-14.7-12.6-29.2-25.3-44-37.8-.2-.2-.4-.4-.6-.5-13-11.2-29.3-11.3-42.4 0-13.2 11.3-26.4 22.7-39.6 34-29.8 25.6-59.6 51.2-89.4 76.8-31.7 27.2-63.4 54.5-95.1 81.7-18.9 16.2-37.8 32.5-56.7 48.7-5.7 4.9-11.4 9.8-17.1 14.7-7.4 6.4-14.9 12.8-22.3 19.1-7.5 6.5-12.3 14.5-12.5 25-.4 17.3 0 34.7 0 52v109.6 130.3 114.3 61.5 2.8c0 16.2 13.7 30 30 30h64.6 155 186.4 162c26.2 0 52.4.5 78.6 0h1.1c16.2 0 30-13.7 30-30 0-15.6 0-31.2 0-46.8 0-37.5 0-75 0-112.5 0-45.4 0-90.7 0-136.1 0-39.2 0-78.4 0-117.7 0-19.1.4-38.1 0-57.2 0-.3 0-.5 0-.8 0-15.7-13.8-30.7-30-30-16.2.8-29.9 13.3-29.9 30.1z"/><path d="m110.9 521.4c14-12.1 28.1-24.1 42.1-36.2 33.6-28.9 67.2-57.7 100.8-86.6 40.7-35 81.5-70 122.2-105 35.1-30.2 70.2-60.3 105.3-90.5 17-14.6 34.5-28.8 51.1-43.9.2-.2.5-.4.7-.6 11.9-10.3 11.3-32 0-42.4-12.7-11.7-29.7-10.9-42.4 0-14 12.1-28.1 24.1-42.1 36.2-33.6 28.9-67.2 57.7-100.8 86.6-40.7 35-81.5 70-122.2 105-35.1 30.2-70.2 60.3-105.3 90.5-17 14.6-34.5 28.8-51.1 43.9-.2.2-.5.4-.7.6-11.9 10.3-11.3 32 0 42.4 12.7 11.7 29.6 11 42.4 0z"/><path d="m490.8 158.5c14 12.1 28.1 24.1 42.1 36.2 33.6 28.9 67.2 57.7 100.8 86.6 40.7 35 81.5 70 122.2 105 35.1 30.2 70.2 60.3 105.3 90.5 17 14.6 34 29.4 51.1 43.9.2.2.5.4.7.6 6.1 5.3 12.9 8.8 21.2 8.8 7.4 0 16.1-3.3 21.2-8.8 10.3-11.2 12.7-31.5 0-42.4-14-12.1-28.1-24.1-42.1-36.2-33.6-28.9-67.2-57.7-100.8-86.6-40.7-35-81.5-70-122.2-105-35.1-30.2-70.2-60.3-105.3-90.5-17-14.6-34-29.4-51.1-43.9-.2-.2-.5-.4-.7-.6-6.1-5.3-12.9-8.8-21.2-8.8-7.4 0-16.1 3.3-21.2 8.8-10.3 11.2-12.7 31.5 0 42.4z"/><path d="m599.9 541.2c-33.4 0-66.9 0-100.3 0-20.2 0-40.5 0-60.7 0-4.6 0-9.2-.1-13.8 0-23.5.4-41.6 18.1-42.4 41.6-.8 25.4 0 51 0 76.5v139.6c0 28.8-.4 57.7 0 86.5v1.4c0 16.2 13.7 30 30 30h67 107 24.8c16.2 0 30-13.7 30-30 0-36.8 0-73.6 0-110.5 0-55.5 0-110.9 0-166.4 0-7.6 0-15.2 0-22.9 0-1.4 0-2.7 0-4.1-.6-23.6-18.5-40.4-41.6-41.7-15.7-.9-30.7 14.4-30 30 .8 17 13.2 29 30 30 .4 0 .9.1 1.3.1-2.7-.4-5.3-.7-8-1.1.9.1 1.7.3 2.5.6-2.4-1-4.8-2-7.2-3 3.4 1.4 2.5 2.8-1.8-2-1-1.4-2.1-2.7-3.1-4.1.5.7.8 1.5 1.1 2.3-1-2.4-2-4.8-3-7.2.3.8.5 1.7.6 2.5-.4-2.7-.7-5.3-1.1-8 .6 10.4.1 20.9.1 31.3v72.9 163.7 37.4c10-10 20-20 30-30-22.3 0-44.7 0-67 0-35.7 0-71.3 0-107 0-8.3 0-16.5 0-24.8 0l30 30c0-34.6 0-69.2 0-103.8 0-54.5 0-109 0-163.5 0-12.6-.7-25.5.1-38.1-.4 2.7-.7 5.3-1.1 8 .1-.9.3-1.7.6-2.5-1 2.4-2 4.8-3 7.2 1.4-3.4 2.8-2.5-2 1.8-1.4 1-2.7 2.1-4.1 3.1.7-.5 1.5-.8 2.3-1.1-2.4 1-4.8 2-7.2 3 .8-.3 1.7-.5 2.5-.6-2.7.4-5.3.7-8 1.1 20-1.2 40.3-.1 60.3-.1h94.8 22.1c15.7 0 30.7-13.8 30-30-.6-16.2-13.1-29.9-29.9-29.9z"/></svg>