<svg clip-rule="evenodd" fill-rule="evenodd" height="300" stroke-linejoin="round" stroke-miterlimit="1.41421" viewBox="0 0 32 32" width="300" xmlns="http://www.w3.org/2000/svg"><path d="m0 0h32v32h-32z" fill="none"/><path d="m6.992 14.416-2.294 2.294-.041.039c-.391.33-1.013.322-1.374-.039-.344-.343-.381-.948-.075-1.331.031-.039.04-.048.075-.084l4.002-4.002c.206-.195.476-.3.764-.292.244.021.472.123.651.292l4.002 4.002c.455.481.316 1.367-.324 1.632-.328.136-.728.08-1.007-.142-.039-.031-.047-.04-.084-.075l-2.295-2.295c-.002 1.871-.005 3.59.001 5.609.012 1.233.839 2.411 2.024 2.819.315.108.648.163.979.164h12.006c.074.008.15.008.222.025.581.132.954.839.679 1.409-.13.271-.386.475-.679.542-.072.016-.148.017-.222.025h-12.009c-1.628-.005-3.232-.853-4.143-2.202-.555-.82-.855-1.807-.858-2.799zm16.01 3.175c.002-1.872.005-3.591-.001-5.609-.014-1.532-1.31-2.922-2.89-2.981-.038-.002-.075-.002-.113-.002h-12.005c-.075-.009-.15-.009-.223-.025-.577-.132-.956-.835-.679-1.41.13-.271.386-.474.679-.541.073-.017.148-.017.223-.025 4.012 0 8.025-.013 12.038 0 1.735.016 3.417.982 4.293 2.487.442.759.676 1.634.678 2.514v5.59l2.294-2.294.041-.038c.201-.17.452-.261.723-.253.05.004.062.004.112.012.552.094.951.719.793 1.264-.046.162-.138.308-.253.43l-4.003 4.003c-.036.034-.044.043-.083.074-.351.28-.891.285-1.248 0-.039-.031-.048-.04-.084-.074l-4.002-4.003c-.454-.48-.316-1.366.325-1.632.327-.135.728-.08 1.006.142.039.032.048.041.084.075z" fill-rule="nonzero"/></svg>