<svg fill="none" height="130" viewBox="0 0 125 130" width="125" xmlns="http://www.w3.org/2000/svg"><circle cx="62.5" cy="66.5" fill="#464655" r="43" stroke="#464655"/><circle cx="62.5" cy="66.5" fill="#fff" r="32" stroke="#464655"/><g fill="#fa324b"><path d="m2.82843 20.3848c-1.5621-1.5621-1.5621-4.0948 0-5.6569l9.89947-9.89947c1.5621-1.5621 4.0948-1.5621 5.6569 0l12.0208 12.02077c4.2958 4.2958 4.2958 11.2606 0 15.5564-4.2958 4.2958-11.2606 4.2958-15.5564 0z"/><path d="m105.799 2.82843c1.562-1.5621 4.095-1.5621 5.657 0l9.899 9.89947c1.562 1.5621 1.562 4.0948 0 5.6569l-12.02 12.0208c-4.296 4.2958-11.261 4.2958-15.5568 0-4.2958-4.2958-4.2958-11.2606 0-15.5564z"/><rect height="27" rx="2" transform="matrix(.70710678 -.70710678 .70710678 .70710678 -40.350269 96.242633)" width="4" x="96" y="96.8284"/><rect height="27" rx="2" transform="matrix(.70710678 .70710678 -.70710678 .70710678 76.110178 8.253776)" width="4" x="28.0919" y="96"/><path clip-rule="evenodd" d="m12 87c.2405 23.794 17.6702 43 51.0025 43s50.7615-19.206 51.0025-43h-5.601c-.374 17.719-20.5579 32-45.4023 32-24.8443 0-45.0284-14.281-45.4018-32z" fill-rule="evenodd"/></g></svg>