<svg fill="none" height="131" viewBox="0 0 131 131" width="131" xmlns="http://www.w3.org/2000/svg"><circle cx="65.5" cy="65.5" fill="#359735" r="65.5"/><circle cx="65.5" cy="65.5" r="60.7925" stroke="#fff" stroke-width="2"/><g fill="#fff"><circle cx="66" cy="45" r="27"/><path d="m26.7132 26.1805c.1496-.4606.8013-.4607.951 0l.2446.7528c.067.2061.2589.3455.4756.3455h.7915c.4844 0 .6858.6198.2939.9045l-.6404.4653c-.1752.1273-.2485.353-.1816.559l.2446.7529c.1497.4606-.3776.8437-.7694.559l-.6404-.4653c-.1753-.1273-.4126-.1273-.5878 0l-.6404.4653c-.3919.2847-.9191-.0984-.7694-.559l.2446-.7529c.0669-.206-.0064-.4317-.1817-.559l-.6403-.4653c-.3919-.2847-.1905-.9045.2938-.9045h.7916c.2166 0 .4086-.1394.4755-.3455z"/><path d="m23.0056 38.539c.1497-.4607.8014-.4607.951 0l.5221 1.6068c.067.206.2589.3455.4755.3455h1.6895c.4844 0 .6858.6198.2939.9045l-1.3668.993c-.1752.1274-.2486.353-.1816.559l.522 1.6068c.1497.4607-.3775.8437-.7694.559l-1.3668-.993c-.1752-.1273-.4125-.1273-.5878 0l-1.3668.9931c-.3918.2847-.9191-.0984-.7694-.5591l.5221-1.6068c.0669-.206-.0064-.4316-.1817-.559l-1.3668-.993c-.3918-.2847-.1905-.9045.2939-.9045h1.6895c.2166 0 .4086-.1395.4755-.3455z"/><path d="m21.7698 50.8975c.1496-.4607.8013-.4607.951 0l.7996 2.4607c.0669.206.2589.3455.4755.3455h2.5874c.4843 0 .6857.6198.2938.9045l-2.0932 1.5208c-.1752.1274-.2486.3531-.1816.5591l.7995 2.4607c.1497.4607-.3775.8437-.7694.559l-2.0932-1.5208c-.1753-.1273-.4126-.1273-.5878 0l-2.0932 1.5208c-.3919.2847-.9191-.0983-.7695-.559l.7996-2.4607c.0669-.206-.0064-.4317-.1816-.5591l-2.0933-1.5208c-.3918-.2847-.1904-.9045.2939-.9045h2.5874c.2166 0 .4086-.1395.4755-.3455z"/><path d="m102.1 26.1805c.15-.4606.801-.4607.951 0l.245.7528c.067.2061.259.3455.475.3455h.792c.484 0 .685.6198.294.9045l-.641.4653c-.175.1273-.248.353-.181.559l.244.7529c.15.4606-.377.8437-.769.559l-.641-.4653c-.175-.1273-.412-.1273-.587 0l-.641.4653c-.392.2847-.919-.0984-.769-.559l.244-.7529c.067-.206-.006-.4317-.181-.559l-.641-.4653c-.3915-.2847-.19-.9045.294-.9045h.792c.216 0 .408-.1394.475-.3455z"/><path d="m108.279 38.539c.15-.4607.802-.4607.951 0l.522 1.6068c.067.206.259.3455.476.3455h1.689c.485 0 .686.6198.294.9045l-1.367.993c-.175.1274-.248.353-.181.559l.522 1.6068c.149.4607-.378.8437-.77.559l-1.366-.993c-.176-.1273-.413-.1273-.588 0l-1.367.9931c-.392.2847-.919-.0984-.769-.5591l.522-1.6068c.067-.206-.007-.4316-.182-.559l-1.367-.993c-.392-.2847-.19-.9045.294-.9045h1.69c.216 0 .408-.1395.475-.3455z"/><path d="m111.987 50.8975c.149-.4607.801-.4607.951 0l.799 2.4607c.067.206.259.3455.476.3455h2.587c.485 0 .686.6198.294.9045l-2.093 1.5208c-.175.1274-.249.3531-.182.5591l.8 2.4607c.149.4607-.378.8437-.77.559l-2.093-1.5208c-.175-.1273-.412-.1273-.588 0l-2.093 1.5208c-.392.2847-.919-.0983-.769-.559l.799-2.4607c.067-.206-.006-.4317-.181-.5591l-2.094-1.5208c-.392-.2847-.19-.9045.294-.9045h2.588c.216 0 .408-.1395.475-.3455z"/><path clip-rule="evenodd" d="m17.6209 74.1509c-1.5177 0-2.7907 1.1721-2.7907 2.6898 0 23.7683 22.9623 43.0363 51.2877 43.0363 28.3255 0 51.2881-19.268 51.2881-43.0363 0-1.5177-1.273-2.6898-2.791-2.6898h-22.8748c-3.5502 0-6.8241 1.7129-9.6925 3.8049-4.408 3.2149-10.1652 5.1611-16.4641 5.1611s-12.056-1.9462-16.4641-5.1611c-2.8684-2.092-6.1423-3.8049-9.6925-3.8049z" fill-rule="evenodd"/></g></svg>