<svg fill="none" height="100" viewBox="0 0 100 100" width="100" xmlns="http://www.w3.org/2000/svg"><circle cx="50" cy="50" fill="#359735" r="50"/><path d="m64.7578 63.5078c-1.3183 1.5788-3.182 2.8076-5.5908 3.6865-2.4089.8627-5.0781 1.294-8.0078 1.294-3.0762 0-5.778-.6673-8.1055-2.002-2.3112-1.3509-4.1016-3.304-5.3711-5.8593-1.2532-2.5554-1.8961-5.5583-1.9287-9.0088v-2.417c0-3.5482.5941-6.6162 1.7822-9.2041 1.2045-2.6042 2.9297-4.5899 5.1758-5.9571 2.2624-1.3834 4.9072-2.0752 7.9346-2.0752 4.2155 0 7.5114 1.0092 9.8877 3.0274 2.3763 2.0019 3.7842 4.9235 4.2236 8.7646h-7.1289c-.3255-2.0345-1.0498-3.5237-2.1728-4.4677-1.1068-.944-2.6368-1.4161-4.5899-1.4161-2.4902 0-4.3864.9359-5.6885 2.8077-1.302 1.8717-1.9612 4.6549-1.9775 8.3496v2.2705c0 3.7272.708 6.543 2.124 8.4472 1.416 1.9043 3.4912 2.8565 6.2256 2.8565 2.7507 0 4.7119-.5859 5.8838-1.7578v-6.1279h-6.665v-5.3956h13.9892z" fill="#fff"/></svg>