<svg fill="none" height="100" viewBox="0 0 100 100" width="100" xmlns="http://www.w3.org/2000/svg"><circle cx="50" cy="50" fill="#dcb41e" r="50"/><path d="m24.9873 32.4531 9.1309 25.7813 9.082-25.7813h9.6191v35.5469h-7.3486v-9.7168l.7324-16.7725-9.5947 26.4893h-5.0293l-9.5703-26.4648.7324 16.748v9.7168h-7.3242v-35.5469zm62.1338 23.7061c-.2767 3.8248-1.6927 6.8359-4.2481 9.0332-2.539 2.1972-5.8919 3.2959-10.0585 3.2959-4.5573 0-8.1462-1.53-10.7666-4.5899-2.6042-3.0761-3.9063-7.2916-3.9063-12.6464v-2.1729c0-3.418.6022-6.429 1.8066-9.0332 1.2045-2.6042 2.9216-4.598 5.1514-5.9814 2.2461-1.3998 4.8503-2.0997 7.8125-2.0997 4.1016 0 7.4056 1.0987 9.9121 3.2959 2.5065 2.1973 3.9551 5.2816 4.3457 9.253h-7.3242c-.179-2.2949-.8219-3.9551-1.9287-4.9805-1.0905-1.0417-2.7588-1.5625-5.0049-1.5625-2.4414 0-4.2725.8789-5.4932 2.6367-1.2044 1.7416-1.8229 4.4515-1.8554 8.1299v2.6856c0 3.8411.5778 6.6487 1.7334 8.4228 1.1719 1.7741 3.011 2.6611 5.5176 2.6611 2.2623 0 3.9469-.5127 5.0537-1.538 1.123-1.0417 1.7659-2.6449 1.9287-4.8096z" fill="#fff"/></svg>