<svg fill="none" viewBox="0 0 100 100" xmlns="http://www.w3.org/2000/svg"><circle cx="50" cy="50" fill="#359735" r="50"/><path d="m64.8 63.5a12.8 12.8 0 0 1 -5.6 3.7c-2.4.9-5.1 1.3-8 1.3-3.1 0-5.8-.7-8.1-2a13.6 13.6 0 0 1 -5.4-5.9 20.7 20.7 0 0 1 -2-9v-2.4c0-3.5.6-6.6 1.8-9.2s3-4.6 5.2-6c2.3-1.3 5-2 8-2 4.2 0 7.5 1 9.8 3 2.4 2 3.8 5 4.3 8.8h-7.2a7 7 0 0 0 -2.1-4.5 6.9 6.9 0 0 0 -4.6-1.4c-2.5 0-4.4 1-5.7 2.8-1.3 1.9-2 4.6-2 8.3v2.3c0 3.7.7 6.5 2.1 8.4 1.4 2 3.5 2.9 6.2 2.9 2.8 0 4.8-.6 6-1.8v-6h-6.7v-5.5h14z" fill="#fff"/></svg>