<svg xmlns="http://www.w3.org/2000/svg" fill="none" viewBox="0 0 100 100">
  <circle cx="50" cy="50" r="50" fill="#dcb41e"/>
  <path fill="#fff" d="M25 32.5L34 58.2l9.1-25.7h9.6V68h-7.3v-9.7l.7-16.8L36.6 68h-5L22 41.5l.7 16.8V68h-7.3V32.5zM87 56.2c-.3 3.8-1.7 6.8-4.2 9a14.8 14.8 0 01-10 3.3c-4.6 0-8.2-1.5-10.9-4.6a19 19 0 01-3.9-12.6V49c0-3.4.6-6.4 1.8-9A13.5 13.5 0 0173 32c4.1 0 7.4 1 10 3.3 2.4 2.2 3.9 5.2 4.3 9.2h-7.4c-.1-2.3-.8-4-1.9-5-1-1-2.7-1.5-5-1.5-2.4 0-4.3.8-5.5 2.6a14.7 14.7 0 00-1.8 8.1v2.7c0 3.9.5 6.7 1.7 8.4 1.2 1.8 3 2.7 5.5 2.7 2.3 0 4-.5 5-1.5 1.2-1 1.8-2.7 2-4.8z"/>
</svg>
