<svg xmlns="http://www.w3.org/2000/svg" fill="none" viewBox="0 0 100 100">
  <circle cx="50" cy="50" r="50" fill="#fa324b"/>
  <path fill="#fff" d="M48.4 56.2c-.3 3.8-1.7 6.8-4.2 9A14.8 14.8 0 0134 68.5c-4.6 0-8.2-1.5-10.8-4.6a19 19 0 01-3.9-12.6V49c0-3.4.6-6.4 1.8-9a13.5 13.5 0 0113-8.1c4 0 7.4 1 9.9 3.3 2.5 2.2 4 5.2 4.3 9.2h-7.3c-.2-2.3-.8-4-1.9-5-1-1-2.8-1.5-5-1.5-2.5 0-4.3.8-5.5 2.6a14.7 14.7 0 00-1.9 8.1v2.7c0 3.9.6 6.7 1.8 8.4 1.1 1.8 3 2.7 5.5 2.7 2.3 0 4-.5 5-1.5 1.2-1 1.8-2.7 2-4.8zm24.9 4.5H60.4L58 68h-7.8l13.2-35.5h6.8L83.5 68h-7.8zm-10.9-6h8.9l-4.5-13.3z"/>
</svg>
